<svg id="visual" viewBox="0 0 900 600" width="900" height="600" xmlns="http://www.w3.org/2000/svg" xmlns:xlink="http://www.w3.org/1999/xlink" version="1.1"><rect x="0" y="0" width="900" height="600" fill="#000000"></rect><path d="M0 246L15 258.5C30 271 60 296 90 311.7C120 327.3 150 333.7 180 338.2C210 342.7 240 345.3 270 335.5C300 325.7 330 303.3 360 306.3C390 309.3 420 337.7 450 337.5C480 337.3 510 308.7 540 295.2C570 281.7 600 283.3 630 291.3C660 299.3 690 313.7 720 319.5C750 325.3 780 322.7 810 309.2C840 295.7 870 271.3 885 259.2L900 247L900 601L885 601C870 601 840 601 810 601C780 601 750 601 720 601C690 601 660 601 630 601C600 601 570 601 540 601C510 601 480 601 450 601C420 601 390 601 360 601C330 601 300 601 270 601C240 601 210 601 180 601C150 601 120 601 90 601C60 601 30 601 15 601L0 601Z" fill="#303030"></path><path d="M0 354L15 356.5C30 359 60 364 90 358.8C120 353.7 150 338.3 180 344C210 349.7 240 376.3 270 378.3C300 380.3 330 357.7 360 342.5C390 327.3 420 319.7 450 313.8C480 308 510 304 540 312.3C570 320.7 600 341.3 630 348C660 354.7 690 347.3 720 335.7C750 324 780 308 810 307C840 306 870 320 885 327L900 334L900 601L885 601C870 601 840 601 810 601C780 601 750 601 720 601C690 601 660 601 630 601C600 601 570 601 540 601C510 601 480 601 450 601C420 601 390 601 360 601C330 601 300 601 270 601C240 601 210 601 180 601C150 601 120 601 90 601C60 601 30 601 15 601L0 601Z" fill="#2a2a2a"></path><path d="M0 371L15 381.3C30 391.7 60 412.3 90 411.8C120 411.3 150 389.7 180 384.2C210 378.7 240 389.3 270 398.8C300 408.3 330 416.7 360 415.8C390 415 420 405 450 399.3C480 393.7 510 392.3 540 385.3C570 378.3 600 365.7 630 373.7C660 381.7 690 410.3 720 416.5C750 422.7 780 406.3 810 403.7C840 401 870 412 885 417.5L900 423L900 601L885 601C870 601 840 601 810 601C780 601 750 601 720 601C690 601 660 601 630 601C600 601 570 601 540 601C510 601 480 601 450 601C420 601 390 601 360 601C330 601 300 601 270 601C240 601 210 601 180 601C150 601 120 601 90 601C60 601 30 601 15 601L0 601Z" fill="#242424"></path><path d="M0 445L15 445.5C30 446 60 447 90 443.8C120 440.7 150 433.3 180 426.2C210 419 240 412 270 413.8C300 415.7 330 426.3 360 436C390 445.7 420 454.3 450 446.2C480 438 510 413 540 406.7C570 400.3 600 412.7 630 413C660 413.3 690 401.7 720 403.2C750 404.7 780 419.3 810 426.8C840 434.3 870 434.7 885 434.8L900 435L900 601L885 601C870 601 840 601 810 601C780 601 750 601 720 601C690 601 660 601 630 601C600 601 570 601 540 601C510 601 480 601 450 601C420 601 390 601 360 601C330 601 300 601 270 601C240 601 210 601 180 601C150 601 120 601 90 601C60 601 30 601 15 601L0 601Z" fill="#1e1e1e"></path><path d="M0 434L15 442C30 450 60 466 90 477C120 488 150 494 180 495.3C210 496.7 240 493.3 270 491.2C300 489 330 488 360 479.7C390 471.3 420 455.7 450 455.2C480 454.7 510 469.3 540 473.7C570 478 600 472 630 463.2C660 454.3 690 442.7 720 444C750 445.3 780 459.7 810 465C840 470.3 870 466.7 885 464.8L900 463L900 601L885 601C870 601 840 601 810 601C780 601 750 601 720 601C690 601 660 601 630 601C600 601 570 601 540 601C510 601 480 601 450 601C420 601 390 601 360 601C330 601 300 601 270 601C240 601 210 601 180 601C150 601 120 601 90 601C60 601 30 601 15 601L0 601Z" fill="#181818"></path><path d="M0 481L15 483C30 485 60 489 90 492.8C120 496.7 150 500.3 180 502C210 503.7 240 503.3 270 503.5C300 503.7 330 504.3 360 504C390 503.7 420 502.3 450 499.7C480 497 510 493 540 489.7C570 486.3 600 483.7 630 484.7C660 485.7 690 490.3 720 497C750 503.7 780 512.3 810 515.2C840 518 870 515 885 513.5L900 512L900 601L885 601C870 601 840 601 810 601C780 601 750 601 720 601C690 601 660 601 630 601C600 601 570 601 540 601C510 601 480 601 450 601C420 601 390 601 360 601C330 601 300 601 270 601C240 601 210 601 180 601C150 601 120 601 90 601C60 601 30 601 15 601L0 601Z" fill="#111111"></path><path d="M0 551L15 548.5C30 546 60 541 90 544.2C120 547.3 150 558.7 180 560.3C210 562 240 554 270 547.5C300 541 330 536 360 531.8C390 527.7 420 524.3 450 528.5C480 532.7 510 544.3 540 545.3C570 546.3 600 536.7 630 531.5C660 526.3 690 525.7 720 530.7C750 535.7 780 546.3 810 549.2C840 552 870 547 885 544.5L900 542L900 601L885 601C870 601 840 601 810 601C780 601 750 601 720 601C690 601 660 601 630 601C600 601 570 601 540 601C510 601 480 601 450 601C420 601 390 601 360 601C330 601 300 601 270 601C240 601 210 601 180 601C150 601 120 601 90 601C60 601 30 601 15 601L0 601Z" fill="#080808"></path></svg>