<svg id="visual" viewBox="0 0 900 600" width="900" height="600" xmlns="http://www.w3.org/2000/svg" xmlns:xlink="http://www.w3.org/1999/xlink" version="1.1"><g stroke-width="1" stroke-linejoin="bevel"><path d="M433 303L366 388L467 377Z" fill="#0d0d0d" stroke="#0d0d0d"></path><path d="M298 265L319 430L366 388Z" fill="#0d0d0d" stroke="#0d0d0d"></path><path d="M366 388L422 535L467 377Z" fill="#0f0f0f" stroke="#0f0f0f"></path><path d="M467 377L527 274L433 303Z" fill="#060606" stroke="#060606"></path><path d="M331 232L298 265L433 303Z" fill="#161616" stroke="#161616"></path><path d="M433 303L298 265L366 388Z" fill="#121212" stroke="#121212"></path><path d="M398 189L331 232L433 303Z" fill="#161616" stroke="#161616"></path><path d="M482 202L398 189L433 303Z" fill="#121212" stroke="#121212"></path><path d="M527 274L482 202L433 303Z" fill="#141414" stroke="#141414"></path><path d="M319 430L422 535L366 388Z" fill="#0d0d0d" stroke="#0d0d0d"></path><path d="M467 377L593 314L527 274Z" fill="#181818" stroke="#181818"></path><path d="M622 435L593 314L467 377Z" fill="#060606" stroke="#060606"></path><path d="M527 274L626 196L482 202Z" fill="#121212" stroke="#121212"></path><path d="M422 535L531 537L467 377Z" fill="#1a1919" stroke="#1a1919"></path><path d="M160 515L292 538L319 430Z" fill="#161616" stroke="#161616"></path><path d="M319 430L292 538L422 535Z" fill="#141414" stroke="#141414"></path><path d="M422 535L484 600L531 537Z" fill="#1e1d1d" stroke="#1e1d1d"></path><path d="M531 537L622 435L467 377Z" fill="#090909" stroke="#090909"></path><path d="M201 211L197 282L298 265Z" fill="#060606" stroke="#060606"></path><path d="M298 265L176 375L319 430Z" fill="#1c1b1b" stroke="#1c1b1b"></path><path d="M201 211L298 265L331 232Z" fill="#090909" stroke="#090909"></path><path d="M482 202L420 126L398 189Z" fill="#121212" stroke="#121212"></path><path d="M398 189L292 107L331 232Z" fill="#1a1919" stroke="#1a1919"></path><path d="M516 102L420 126L482 202Z" fill="#161616" stroke="#161616"></path><path d="M197 282L176 375L298 265Z" fill="#0f0f0f" stroke="#0f0f0f"></path><path d="M531 537L580 533L622 435Z" fill="#161616" stroke="#161616"></path><path d="M316 600L421 600L422 535Z" fill="#121212" stroke="#121212"></path><path d="M531 537L570 600L580 533Z" fill="#1e1d1d" stroke="#1e1d1d"></path><path d="M421 600L484 600L422 535Z" fill="#1e1d1d" stroke="#1e1d1d"></path><path d="M292 107L201 211L331 232Z" fill="#0f0f0f" stroke="#0f0f0f"></path><path d="M197 282L119 336L176 375Z" fill="#141414" stroke="#141414"></path><path d="M209 600L316 600L292 538Z" fill="#121212" stroke="#121212"></path><path d="M292 538L316 600L422 535Z" fill="#0f0f0f" stroke="#0f0f0f"></path><path d="M722 260L626 196L593 314Z" fill="#1a1919" stroke="#1a1919"></path><path d="M593 314L626 196L527 274Z" fill="#141414" stroke="#141414"></path><path d="M570 99L516 102L482 202Z" fill="#161616" stroke="#161616"></path><path d="M396 0L292 107L420 126Z" fill="#090909" stroke="#090909"></path><path d="M420 126L292 107L398 189Z" fill="#1e1d1d" stroke="#1e1d1d"></path><path d="M736 464L730 423L622 435Z" fill="#161616" stroke="#161616"></path><path d="M484 600L570 600L531 537Z" fill="#1e1d1d" stroke="#1e1d1d"></path><path d="M128 239L119 336L197 282Z" fill="#1e1d1d" stroke="#1e1d1d"></path><path d="M176 375L160 515L319 430Z" fill="#1e1d1d" stroke="#1e1d1d"></path><path d="M83 465L160 515L176 375Z" fill="#0d0d0d" stroke="#0d0d0d"></path><path d="M626 196L570 99L482 202Z" fill="#181818" stroke="#181818"></path><path d="M314 0L209 78L292 107Z" fill="#0d0d0d" stroke="#0d0d0d"></path><path d="M201 211L128 239L197 282Z" fill="#0f0f0f" stroke="#0f0f0f"></path><path d="M120 106L128 239L201 211Z" fill="#181818" stroke="#181818"></path><path d="M160 515L209 600L292 538Z" fill="#141414" stroke="#141414"></path><path d="M730 423L722 260L593 314Z" fill="#1a1919" stroke="#1a1919"></path><path d="M626 196L689 66L570 99Z" fill="#181818" stroke="#181818"></path><path d="M730 423L593 314L622 435Z" fill="#1c1b1b" stroke="#1c1b1b"></path><path d="M736 464L622 435L580 533Z" fill="#1c1b1b" stroke="#1c1b1b"></path><path d="M722 260L710 198L626 196Z" fill="#1e1d1d" stroke="#1e1d1d"></path><path d="M670 600L736 464L580 533Z" fill="#1e1d1d" stroke="#1e1d1d"></path><path d="M730 423L774 383L722 260Z" fill="#1c1b1b" stroke="#1c1b1b"></path><path d="M396 0L420 126L507 0Z" fill="#121212" stroke="#121212"></path><path d="M292 107L209 78L201 211Z" fill="#1a1919" stroke="#1a1919"></path><path d="M119 336L71 404L176 375Z" fill="#161616" stroke="#161616"></path><path d="M160 515L139 600L209 600Z" fill="#1a1919" stroke="#1a1919"></path><path d="M0 384L71 404L119 336Z" fill="#1e1d1d" stroke="#1e1d1d"></path><path d="M71 404L83 465L176 375Z" fill="#1a1919" stroke="#1a1919"></path><path d="M570 600L670 600L580 533Z" fill="#090909" stroke="#090909"></path><path d="M507 0L420 126L516 102Z" fill="#121212" stroke="#121212"></path><path d="M736 464L774 383L730 423Z" fill="#1c1b1b" stroke="#1c1b1b"></path><path d="M722 260L815 205L710 198Z" fill="#060606" stroke="#060606"></path><path d="M83 465L139 600L160 515Z" fill="#141414" stroke="#141414"></path><path d="M567 0L507 0L516 102Z" fill="#1c1b1b" stroke="#1c1b1b"></path><path d="M567 0L516 102L570 99Z" fill="#0d0d0d" stroke="#0d0d0d"></path><path d="M396 0L314 0L292 107Z" fill="#060606" stroke="#060606"></path><path d="M177 0L120 106L209 78Z" fill="#141414" stroke="#141414"></path><path d="M209 78L120 106L201 211Z" fill="#1c1b1b" stroke="#1c1b1b"></path><path d="M0 279L0 384L119 336Z" fill="#1e1d1d" stroke="#1e1d1d"></path><path d="M689 66L567 0L570 99Z" fill="#1e1d1d" stroke="#1e1d1d"></path><path d="M805 116L689 66L710 198Z" fill="#060606" stroke="#060606"></path><path d="M710 198L689 66L626 196Z" fill="#181818" stroke="#181818"></path><path d="M900 404L817 313L774 383Z" fill="#121212" stroke="#121212"></path><path d="M774 383L817 313L722 260Z" fill="#060606" stroke="#060606"></path><path d="M790 514L774 383L736 464Z" fill="#121212" stroke="#121212"></path><path d="M670 600L790 514L736 464Z" fill="#1a1919" stroke="#1a1919"></path><path d="M71 404L0 484L83 465Z" fill="#161616" stroke="#161616"></path><path d="M83 465L0 600L139 600Z" fill="#090909" stroke="#090909"></path><path d="M0 279L119 336L128 239Z" fill="#0d0d0d" stroke="#0d0d0d"></path><path d="M0 204L0 279L128 239Z" fill="#090909" stroke="#090909"></path><path d="M314 0L177 0L209 78Z" fill="#1e1d1d" stroke="#1e1d1d"></path><path d="M120 106L0 204L128 239Z" fill="#0f0f0f" stroke="#0f0f0f"></path><path d="M817 313L815 205L722 260Z" fill="#1a1919" stroke="#1a1919"></path><path d="M0 384L0 484L71 404Z" fill="#1c1b1b" stroke="#1c1b1b"></path><path d="M0 98L0 204L120 106Z" fill="#181818" stroke="#181818"></path><path d="M815 205L805 116L710 198Z" fill="#181818" stroke="#181818"></path><path d="M689 66L719 0L567 0Z" fill="#1e1d1d" stroke="#1e1d1d"></path><path d="M805 116L719 0L689 66Z" fill="#121212" stroke="#121212"></path><path d="M670 600L819 600L790 514Z" fill="#121212" stroke="#121212"></path><path d="M790 514L900 404L774 383Z" fill="#060606" stroke="#060606"></path><path d="M177 0L99 0L120 106Z" fill="#121212" stroke="#121212"></path><path d="M0 484L0 600L83 465Z" fill="#090909" stroke="#090909"></path><path d="M99 0L0 98L120 106Z" fill="#1e1d1d" stroke="#1e1d1d"></path><path d="M900 501L900 404L790 514Z" fill="#1c1b1b" stroke="#1c1b1b"></path><path d="M817 313L900 298L815 205Z" fill="#1a1919" stroke="#1a1919"></path><path d="M815 205L900 173L805 116Z" fill="#141414" stroke="#141414"></path><path d="M900 404L900 298L817 313Z" fill="#181818" stroke="#181818"></path><path d="M819 600L900 501L790 514Z" fill="#161616" stroke="#161616"></path><path d="M900 298L900 173L815 205Z" fill="#090909" stroke="#090909"></path><path d="M805 116L810 0L719 0Z" fill="#0f0f0f" stroke="#0f0f0f"></path><path d="M900 0L810 0L805 116Z" fill="#090909" stroke="#090909"></path><path d="M900 173L900 121L805 116Z" fill="#090909" stroke="#090909"></path><path d="M819 600L900 600L900 501Z" fill="#1e1d1d" stroke="#1e1d1d"></path><path d="M99 0L0 0L0 98Z" fill="#141414" stroke="#141414"></path><path d="M900 121L900 0L805 116Z" fill="#161616" stroke="#161616"></path></g></svg>