<svg id="visual" viewBox="0 0 900 600" width="900" height="600" xmlns="http://www.w3.org/2000/svg" xmlns:xlink="http://www.w3.org/1999/xlink" version="1.1"><g stroke-width="1" stroke-linejoin="bevel"><path d="M487 309L413 334L484 376Z" fill="#3e3e3e" stroke="#3e3e3e"></path><path d="M413 334L405 423L484 376Z" fill="#181818" stroke="#181818"></path><path d="M423 211L338 332L413 334Z" fill="#181818" stroke="#181818"></path><path d="M413 334L338 332L405 423Z" fill="#121212" stroke="#121212"></path><path d="M589 338L534 237L487 309Z" fill="#252525" stroke="#252525"></path><path d="M487 309L423 211L413 334Z" fill="#1e1e1e" stroke="#1e1e1e"></path><path d="M633 431L589 338L484 376Z" fill="#2b2b2b" stroke="#2b2b2b"></path><path d="M484 376L589 338L487 309Z" fill="#3e3e3e" stroke="#3e3e3e"></path><path d="M534 237L423 211L487 309Z" fill="#121212" stroke="#121212"></path><path d="M405 423L478 502L484 376Z" fill="#252525" stroke="#252525"></path><path d="M338 332L308 413L405 423Z" fill="#454545" stroke="#454545"></path><path d="M405 423L360 499L478 502Z" fill="#454545" stroke="#454545"></path><path d="M308 413L360 499L405 423Z" fill="#2b2b2b" stroke="#2b2b2b"></path><path d="M584 521L633 431L484 376Z" fill="#121212" stroke="#121212"></path><path d="M589 338L637 234L534 237Z" fill="#454545" stroke="#454545"></path><path d="M534 104L374 121L423 211Z" fill="#121212" stroke="#121212"></path><path d="M707 306L637 234L589 338Z" fill="#181818" stroke="#181818"></path><path d="M633 431L668 389L589 338Z" fill="#454545" stroke="#454545"></path><path d="M478 502L584 521L484 376Z" fill="#1e1e1e" stroke="#1e1e1e"></path><path d="M633 431L675 526L668 389Z" fill="#252525" stroke="#252525"></path><path d="M505 600L584 521L478 502Z" fill="#383838" stroke="#383838"></path><path d="M534 104L423 211L534 237Z" fill="#181818" stroke="#181818"></path><path d="M423 211L262 181L338 332Z" fill="#121212" stroke="#121212"></path><path d="M338 332L195 314L308 413Z" fill="#121212" stroke="#121212"></path><path d="M308 413L271 491L360 499Z" fill="#181818" stroke="#181818"></path><path d="M361 600L505 600L478 502Z" fill="#454545" stroke="#454545"></path><path d="M178 413L271 491L308 413Z" fill="#181818" stroke="#181818"></path><path d="M374 121L317 136L423 211Z" fill="#2b2b2b" stroke="#2b2b2b"></path><path d="M637 234L534 104L534 237Z" fill="#454545" stroke="#454545"></path><path d="M317 136L262 181L423 211Z" fill="#454545" stroke="#454545"></path><path d="M668 389L707 306L589 338Z" fill="#1e1e1e" stroke="#1e1e1e"></path><path d="M637 234L565 62L534 104Z" fill="#3e3e3e" stroke="#3e3e3e"></path><path d="M262 181L195 314L338 332Z" fill="#252525" stroke="#252525"></path><path d="M361 600L478 502L360 499Z" fill="#3e3e3e" stroke="#3e3e3e"></path><path d="M320 600L361 600L360 499Z" fill="#121212" stroke="#121212"></path><path d="M262 181L219 195L195 314Z" fill="#454545" stroke="#454545"></path><path d="M168 78L219 195L262 181Z" fill="#313131" stroke="#313131"></path><path d="M632 600L675 526L584 521Z" fill="#383838" stroke="#383838"></path><path d="M584 521L675 526L633 431Z" fill="#454545" stroke="#454545"></path><path d="M668 389L817 373L707 306Z" fill="#313131" stroke="#313131"></path><path d="M195 314L178 413L308 413Z" fill="#313131" stroke="#313131"></path><path d="M271 491L320 600L360 499Z" fill="#454545" stroke="#454545"></path><path d="M801 214L724 224L830 293Z" fill="#090909" stroke="#090909"></path><path d="M707 306L724 224L637 234Z" fill="#383838" stroke="#383838"></path><path d="M165 600L320 600L271 491Z" fill="#121212" stroke="#121212"></path><path d="M719 116L565 62L637 234Z" fill="#383838" stroke="#383838"></path><path d="M534 104L509 0L374 121Z" fill="#252525" stroke="#252525"></path><path d="M374 121L320 0L317 136Z" fill="#383838" stroke="#383838"></path><path d="M178 413L180 472L271 491Z" fill="#313131" stroke="#313131"></path><path d="M505 600L632 600L584 521Z" fill="#4c4c4c" stroke="#4c4c4c"></path><path d="M632 600L666 600L675 526Z" fill="#121212" stroke="#121212"></path><path d="M675 526L787 461L668 389Z" fill="#3e3e3e" stroke="#3e3e3e"></path><path d="M89 183L121 323L195 314Z" fill="#090909" stroke="#090909"></path><path d="M195 314L121 323L178 413Z" fill="#383838" stroke="#383838"></path><path d="M178 413L78 428L180 472Z" fill="#4c4c4c" stroke="#4c4c4c"></path><path d="M604 0L509 0L565 62Z" fill="#090909" stroke="#090909"></path><path d="M565 62L509 0L534 104Z" fill="#383838" stroke="#383838"></path><path d="M317 136L168 78L262 181Z" fill="#1e1e1e" stroke="#1e1e1e"></path><path d="M724 224L719 116L637 234Z" fill="#313131" stroke="#313131"></path><path d="M509 0L377 0L374 121Z" fill="#313131" stroke="#313131"></path><path d="M781 600L787 461L675 526Z" fill="#252525" stroke="#252525"></path><path d="M724 224L801 214L719 116Z" fill="#454545" stroke="#454545"></path><path d="M787 461L817 373L668 389Z" fill="#1e1e1e" stroke="#1e1e1e"></path><path d="M830 293L724 224L707 306Z" fill="#454545" stroke="#454545"></path><path d="M377 0L320 0L374 121Z" fill="#121212" stroke="#121212"></path><path d="M219 195L89 183L195 314Z" fill="#313131" stroke="#313131"></path><path d="M719 116L604 0L565 62Z" fill="#090909" stroke="#090909"></path><path d="M817 373L830 293L707 306Z" fill="#121212" stroke="#121212"></path><path d="M121 323L78 428L178 413Z" fill="#2b2b2b" stroke="#2b2b2b"></path><path d="M180 472L165 600L271 491Z" fill="#454545" stroke="#454545"></path><path d="M88 495L165 600L180 472Z" fill="#252525" stroke="#252525"></path><path d="M227 0L168 78L317 136Z" fill="#454545" stroke="#454545"></path><path d="M121 323L0 313L78 428Z" fill="#1e1e1e" stroke="#1e1e1e"></path><path d="M78 428L88 495L180 472Z" fill="#252525" stroke="#252525"></path><path d="M103 137L89 183L219 195Z" fill="#2b2b2b" stroke="#2b2b2b"></path><path d="M168 78L103 137L219 195Z" fill="#1e1e1e" stroke="#1e1e1e"></path><path d="M320 0L227 0L317 136Z" fill="#090909" stroke="#090909"></path><path d="M0 114L89 183L103 137Z" fill="#2b2b2b" stroke="#2b2b2b"></path><path d="M801 214L805 119L719 116Z" fill="#1e1e1e" stroke="#1e1e1e"></path><path d="M719 116L694 0L604 0Z" fill="#181818" stroke="#181818"></path><path d="M900 212L805 119L801 214Z" fill="#2b2b2b" stroke="#2b2b2b"></path><path d="M666 600L781 600L675 526Z" fill="#1e1e1e" stroke="#1e1e1e"></path><path d="M900 437L900 307L817 373Z" fill="#313131" stroke="#313131"></path><path d="M817 373L900 307L830 293Z" fill="#383838" stroke="#383838"></path><path d="M808 0L694 0L719 116Z" fill="#090909" stroke="#090909"></path><path d="M900 437L817 373L787 461Z" fill="#383838" stroke="#383838"></path><path d="M830 293L900 212L801 214Z" fill="#454545" stroke="#454545"></path><path d="M0 513L88 600L88 495Z" fill="#121212" stroke="#121212"></path><path d="M88 495L88 600L165 600Z" fill="#090909" stroke="#090909"></path><path d="M900 524L900 437L787 461Z" fill="#383838" stroke="#383838"></path><path d="M0 187L0 313L89 183Z" fill="#2b2b2b" stroke="#2b2b2b"></path><path d="M89 183L0 313L121 323Z" fill="#252525" stroke="#252525"></path><path d="M78 428L0 426L88 495Z" fill="#3e3e3e" stroke="#3e3e3e"></path><path d="M900 307L900 212L830 293Z" fill="#121212" stroke="#121212"></path><path d="M805 119L808 0L719 116Z" fill="#2b2b2b" stroke="#2b2b2b"></path><path d="M0 313L0 426L78 428Z" fill="#121212" stroke="#121212"></path><path d="M781 600L900 524L787 461Z" fill="#252525" stroke="#252525"></path><path d="M0 114L0 187L89 183Z" fill="#313131" stroke="#313131"></path><path d="M84 0L103 137L168 78Z" fill="#090909" stroke="#090909"></path><path d="M0 426L0 513L88 495Z" fill="#313131" stroke="#313131"></path><path d="M900 90L808 0L805 119Z" fill="#4c4c4c" stroke="#4c4c4c"></path><path d="M227 0L84 0L168 78Z" fill="#383838" stroke="#383838"></path><path d="M900 212L900 90L805 119Z" fill="#3e3e3e" stroke="#3e3e3e"></path><path d="M84 0L0 114L103 137Z" fill="#383838" stroke="#383838"></path><path d="M781 600L900 600L900 524Z" fill="#121212" stroke="#121212"></path><path d="M0 513L0 600L88 600Z" fill="#2b2b2b" stroke="#2b2b2b"></path><path d="M900 90L900 0L808 0Z" fill="#2b2b2b" stroke="#2b2b2b"></path><path d="M84 0L0 0L0 114Z" fill="#252525" stroke="#252525"></path></g></svg>