<svg id="visual" viewBox="0 0 900 600" width="900" height="600" xmlns="http://www.w3.org/2000/svg" xmlns:xlink="http://www.w3.org/1999/xlink" version="1.1"><g stroke-width="1" stroke-linejoin="bevel"><path d="M432 285L433 208L320 260Z" fill="#0d0d0d" stroke="#0d0d0d"></path><path d="M433 208L322 174L320 260Z" fill="#0a0909" stroke="#0a0909"></path><path d="M331 366L417 363L432 285Z" fill="#0d0d0d" stroke="#0d0d0d"></path><path d="M433 208L431 125L322 174Z" fill="#131212" stroke="#131212"></path><path d="M320 260L331 366L432 285Z" fill="#0a0909" stroke="#0a0909"></path><path d="M476 382L527 308L432 285Z" fill="#020202" stroke="#020202"></path><path d="M432 285L527 308L433 208Z" fill="#020202" stroke="#020202"></path><path d="M433 208L533 173L431 125Z" fill="#0a0909" stroke="#0a0909"></path><path d="M417 363L476 382L432 285Z" fill="#131212" stroke="#131212"></path><path d="M471 509L476 382L417 363Z" fill="#131212" stroke="#131212"></path><path d="M527 308L533 173L433 208Z" fill="#131212" stroke="#131212"></path><path d="M431 125L294 88L322 174Z" fill="#151414" stroke="#151414"></path><path d="M322 174L201 238L320 260Z" fill="#131212" stroke="#131212"></path><path d="M320 260L190 261L331 366Z" fill="#0d0d0d" stroke="#0d0d0d"></path><path d="M234 103L201 238L322 174Z" fill="#020202" stroke="#020202"></path><path d="M533 173L528 125L431 125Z" fill="#100f0f" stroke="#100f0f"></path><path d="M431 125L436 0L294 88Z" fill="#060606" stroke="#060606"></path><path d="M201 238L190 261L320 260Z" fill="#131212" stroke="#131212"></path><path d="M527 308L572 199L533 173Z" fill="#100f0f" stroke="#100f0f"></path><path d="M533 173L572 199L528 125Z" fill="#131212" stroke="#131212"></path><path d="M294 88L234 103L322 174Z" fill="#060606" stroke="#060606"></path><path d="M201 238L119 203L190 261Z" fill="#100f0f" stroke="#100f0f"></path><path d="M476 382L586 319L527 308Z" fill="#1a1919" stroke="#1a1919"></path><path d="M527 308L586 319L572 199Z" fill="#151414" stroke="#151414"></path><path d="M520 0L436 0L431 125Z" fill="#0d0d0d" stroke="#0d0d0d"></path><path d="M294 88L283 0L234 103Z" fill="#020202" stroke="#020202"></path><path d="M436 0L283 0L294 88Z" fill="#0a0909" stroke="#0a0909"></path><path d="M124 95L119 203L234 103Z" fill="#131212" stroke="#131212"></path><path d="M234 103L119 203L201 238Z" fill="#020202" stroke="#020202"></path><path d="M572 199L585 60L528 125Z" fill="#1e1d1d" stroke="#1e1d1d"></path><path d="M528 125L520 0L431 125Z" fill="#1c1b1b" stroke="#1c1b1b"></path><path d="M688 138L585 60L572 199Z" fill="#1c1b1b" stroke="#1c1b1b"></path><path d="M168 431L221 470L331 366Z" fill="#060606" stroke="#060606"></path><path d="M416 530L471 509L417 363Z" fill="#0d0d0d" stroke="#0d0d0d"></path><path d="M168 431L331 366L190 261Z" fill="#020202" stroke="#020202"></path><path d="M416 530L417 363L331 366Z" fill="#1e1d1d" stroke="#1e1d1d"></path><path d="M476 382L631 383L586 319Z" fill="#151414" stroke="#151414"></path><path d="M585 60L520 0L528 125Z" fill="#060606" stroke="#060606"></path><path d="M90 366L168 431L190 261Z" fill="#181717" stroke="#181717"></path><path d="M576 477L631 383L476 382Z" fill="#1c1b1b" stroke="#1c1b1b"></path><path d="M586 319L678 181L572 199Z" fill="#0a0909" stroke="#0a0909"></path><path d="M286 520L416 530L331 366Z" fill="#020202" stroke="#020202"></path><path d="M222 600L286 520L221 470Z" fill="#020202" stroke="#020202"></path><path d="M221 470L286 520L331 366Z" fill="#100f0f" stroke="#100f0f"></path><path d="M119 203L95 307L190 261Z" fill="#060606" stroke="#060606"></path><path d="M164 0L124 95L234 103Z" fill="#1e1d1d" stroke="#1e1d1d"></path><path d="M119 203L0 278L95 307Z" fill="#131212" stroke="#131212"></path><path d="M471 509L576 477L476 382Z" fill="#151414" stroke="#151414"></path><path d="M528 600L576 477L471 509Z" fill="#181717" stroke="#181717"></path><path d="M702 312L678 181L586 319Z" fill="#131212" stroke="#131212"></path><path d="M95 307L90 366L190 261Z" fill="#1a1919" stroke="#1a1919"></path><path d="M678 181L688 138L572 199Z" fill="#151414" stroke="#151414"></path><path d="M585 60L623 0L520 0Z" fill="#1e1d1d" stroke="#1e1d1d"></path><path d="M631 383L702 312L586 319Z" fill="#100f0f" stroke="#100f0f"></path><path d="M807 199L766 80L688 138Z" fill="#181717" stroke="#181717"></path><path d="M722 413L702 312L631 383Z" fill="#181717" stroke="#181717"></path><path d="M283 0L164 0L234 103Z" fill="#151414" stroke="#151414"></path><path d="M694 0L623 0L585 60Z" fill="#0a0909" stroke="#0a0909"></path><path d="M286 520L412 600L416 530Z" fill="#0a0909" stroke="#0a0909"></path><path d="M416 530L412 600L471 509Z" fill="#1c1b1b" stroke="#1c1b1b"></path><path d="M168 431L132 512L221 470Z" fill="#060606" stroke="#060606"></path><path d="M286 520L283 600L412 600Z" fill="#100f0f" stroke="#100f0f"></path><path d="M90 366L132 512L168 431Z" fill="#100f0f" stroke="#100f0f"></path><path d="M222 600L283 600L286 520Z" fill="#100f0f" stroke="#100f0f"></path><path d="M164 0L96 0L124 95Z" fill="#0d0d0d" stroke="#0d0d0d"></path><path d="M0 178L0 278L119 203Z" fill="#181717" stroke="#181717"></path><path d="M95 307L0 365L90 366Z" fill="#100f0f" stroke="#100f0f"></path><path d="M731 511L722 413L576 477Z" fill="#151414" stroke="#151414"></path><path d="M576 477L722 413L631 383Z" fill="#131212" stroke="#131212"></path><path d="M702 312L807 199L678 181Z" fill="#0a0909" stroke="#0a0909"></path><path d="M412 600L528 600L471 509Z" fill="#020202" stroke="#020202"></path><path d="M0 178L119 203L0 123Z" fill="#131212" stroke="#131212"></path><path d="M90 366L0 463L132 512Z" fill="#020202" stroke="#020202"></path><path d="M0 123L119 203L124 95Z" fill="#131212" stroke="#131212"></path><path d="M132 512L222 600L221 470Z" fill="#1a1919" stroke="#1a1919"></path><path d="M722 413L767 314L702 312Z" fill="#1e1d1d" stroke="#1e1d1d"></path><path d="M766 80L694 0L688 138Z" fill="#0a0909" stroke="#0a0909"></path><path d="M688 138L694 0L585 60Z" fill="#151414" stroke="#151414"></path><path d="M0 278L0 365L95 307Z" fill="#1a1919" stroke="#1a1919"></path><path d="M96 0L0 123L124 95Z" fill="#151414" stroke="#151414"></path><path d="M528 600L579 600L576 477Z" fill="#1a1919" stroke="#1a1919"></path><path d="M807 199L688 138L678 181Z" fill="#1c1b1b" stroke="#1c1b1b"></path><path d="M767 314L807 199L702 312Z" fill="#0a0909" stroke="#0a0909"></path><path d="M707 600L731 511L576 477Z" fill="#131212" stroke="#131212"></path><path d="M722 413L806 414L767 314Z" fill="#181717" stroke="#181717"></path><path d="M900 328L900 207L807 199Z" fill="#100f0f" stroke="#100f0f"></path><path d="M0 365L0 463L90 366Z" fill="#131212" stroke="#131212"></path><path d="M132 512L115 600L222 600Z" fill="#151414" stroke="#151414"></path><path d="M0 600L115 600L132 512Z" fill="#100f0f" stroke="#100f0f"></path><path d="M96 0L0 0L0 123Z" fill="#1e1d1d" stroke="#1e1d1d"></path><path d="M731 511L806 414L722 413Z" fill="#181717" stroke="#181717"></path><path d="M900 69L791 0L766 80Z" fill="#020202" stroke="#020202"></path><path d="M766 80L791 0L694 0Z" fill="#0d0d0d" stroke="#0d0d0d"></path><path d="M579 600L707 600L576 477Z" fill="#151414" stroke="#151414"></path><path d="M731 511L791 538L806 414Z" fill="#0a0909" stroke="#0a0909"></path><path d="M707 600L791 538L731 511Z" fill="#020202" stroke="#020202"></path><path d="M900 328L807 199L767 314Z" fill="#1a1919" stroke="#1a1919"></path><path d="M807 199L900 69L766 80Z" fill="#1a1919" stroke="#1a1919"></path><path d="M900 328L767 314L806 414Z" fill="#0a0909" stroke="#0a0909"></path><path d="M0 463L0 600L132 512Z" fill="#020202" stroke="#020202"></path><path d="M900 385L900 328L806 414Z" fill="#151414" stroke="#151414"></path><path d="M900 528L900 385L806 414Z" fill="#181717" stroke="#181717"></path><path d="M707 600L793 600L791 538Z" fill="#020202" stroke="#020202"></path><path d="M791 538L900 528L806 414Z" fill="#020202" stroke="#020202"></path><path d="M900 207L900 69L807 199Z" fill="#151414" stroke="#151414"></path><path d="M900 69L900 0L791 0Z" fill="#100f0f" stroke="#100f0f"></path><path d="M900 600L900 528L791 538Z" fill="#1a1919" stroke="#1a1919"></path><path d="M793 600L900 600L791 538Z" fill="#1a1919" stroke="#1a1919"></path></g></svg>